<svg xmlns="http://www.w3.org/2000/svg" enable-background="new 0 0 100 100" viewBox="0 0 100 100" id="lightbulb">
  <path d="M33.849,55.916c1.497,1.057,2.391,2.715,2.391,4.434v1.966h-0.568c-1.104,0-2,0.896-2,2s0.896,2,2,2h0.568v4.128h-0.568
	c-1.104,0-2,0.896-2,2s0.896,2,2,2h0.568v3.248c0,0.297,0.025,0.587,0.043,0.88h-0.612c-1.104,0-2,0.896-2,2s0.896,2,2,2h1.438
	c1.45,4.003,4.609,7.183,8.563,8.546c-0.034,0.168-0.067,0.336-0.067,0.511C45.605,93.491,47.573,95,50,95s4.395-1.509,4.395-3.372
	c0-0.168-0.034-0.329-0.065-0.491c2.011-0.665,3.859-1.784,5.4-3.325c1.5-1.5,2.597-3.292,3.268-5.241h1.33c1.104,0,2-0.896,2-2
	s-0.896-2-2-2h-0.592c0.006-0.164,0.024-0.325,0.024-0.49v-3.638h0.568c1.104,0,2-0.896,2-2s-0.896-2-2-2h-0.568v-4.128h0.568
	c1.104,0,2-0.896,2-2s-0.896-2-2-2h-0.568v-1.927c0-1.763,0.815-3.38,2.181-4.327c7.564-5.24,12.081-13.854,12.081-23.039
	C78.022,17.57,65.451,5,50,5c-1.056,0-2.127,0.059-3.187,0.176C33.705,6.626,23.312,17.222,22.101,30.37
	C21.166,40.509,25.558,50.059,33.849,55.916z M56.901,84.984c-1.843,1.844-4.294,2.858-6.901,2.858h-0.001l-0.183-0.002
	c-3.588-0.066-6.716-2.191-8.357-5.27h17.207C58.21,83.45,57.621,84.264,56.901,84.984z M59.761,78.081
	c0,0.165-0.016,0.327-0.024,0.49H40.282c-0.024-0.291-0.043-0.583-0.043-0.88v-3.248h19.521V78.081z M59.761,70.443H40.239v-4.128
	h19.521V70.443z M26.083,30.737c1.038-11.266,9.941-20.344,21.17-21.585C48.167,9.051,49.091,9,50,9
	c13.246,0,24.022,10.776,24.022,24.022c0,7.874-3.872,15.258-10.359,19.752c-2.443,1.693-3.902,4.54-3.902,7.614v1.927H40.239V60.35
	c0-3.017-1.526-5.896-4.082-7.701C29.047,47.627,25.281,39.436,26.083,30.737z"></path>
  <path d="M43.445,32.549c0.011,0.062,0.027,0.122,0.044,0.182c0.018,0.064,0.035,0.128,0.059,0.19
	c0.023,0.06,0.051,0.116,0.079,0.173c0.029,0.059,0.059,0.118,0.094,0.174c0.034,0.054,0.072,0.104,0.111,0.154
	c0.04,0.052,0.079,0.103,0.125,0.151c0.048,0.051,0.101,0.096,0.154,0.142c0.034,0.029,0.061,0.063,0.097,0.09
	c0.01,0.007,0.022,0.009,0.031,0.016c0.152,0.11,0.32,0.197,0.5,0.261c0.037,0.013,0.074,0.024,0.112,0.035
	c0.177,0.052,0.36,0.088,0.553,0.088c0.001,0,0.002,0.001,0.003,0.001c0,0,0.001,0,0.001,0l0.001,0h5.172l-6.771,8.999
	c-0.664,0.883-0.486,2.137,0.396,2.801c0.36,0.271,0.782,0.401,1.2,0.401c0.607,0,1.207-0.275,1.601-0.798l9.18-12.201
	c0.01-0.014,0.016-0.029,0.026-0.043c0.042-0.058,0.076-0.12,0.111-0.183c0.03-0.054,0.063-0.106,0.087-0.161
	c0.026-0.057,0.043-0.118,0.064-0.178c0.022-0.065,0.046-0.129,0.061-0.196c0.012-0.054,0.017-0.11,0.025-0.166
	c0.01-0.076,0.021-0.151,0.023-0.228c0-0.016,0.005-0.031,0.005-0.047c0-0.042-0.01-0.082-0.012-0.123
	c-0.005-0.074-0.009-0.147-0.022-0.219c-0.011-0.062-0.027-0.122-0.044-0.182c-0.018-0.064-0.035-0.128-0.059-0.19
	c-0.023-0.06-0.051-0.116-0.079-0.173c-0.029-0.059-0.059-0.118-0.094-0.174c-0.034-0.054-0.072-0.104-0.111-0.154
	c-0.04-0.052-0.079-0.103-0.125-0.151c-0.048-0.051-0.101-0.096-0.154-0.142c-0.034-0.029-0.061-0.063-0.097-0.09
	c-0.014-0.01-0.029-0.016-0.043-0.026c-0.059-0.042-0.122-0.077-0.186-0.112c-0.052-0.029-0.103-0.061-0.157-0.085
	c-0.059-0.027-0.122-0.045-0.184-0.066c-0.063-0.021-0.125-0.044-0.19-0.059c-0.057-0.013-0.115-0.018-0.173-0.026
	c-0.073-0.01-0.146-0.02-0.22-0.022c-0.017,0-0.032-0.005-0.049-0.005h-5.172l6.771-9c0.664-0.883,0.486-2.137-0.396-2.801
	c-0.884-0.664-2.137-0.485-2.801,0.396l-9.18,12.202c-0.01,0.014-0.016,0.029-0.026,0.043c-0.042,0.058-0.076,0.12-0.111,0.183
	c-0.03,0.054-0.063,0.106-0.087,0.161c-0.026,0.057-0.043,0.118-0.064,0.178c-0.022,0.065-0.046,0.129-0.061,0.196
	c-0.012,0.054-0.017,0.11-0.025,0.166c-0.01,0.076-0.021,0.151-0.023,0.228c0,0.016-0.005,0.031-0.005,0.047
	c0,0.042,0.01,0.082,0.012,0.123C43.427,32.403,43.432,32.476,43.445,32.549z"></path>
</svg>
