<svg xmlns="http://www.w3.org/2000/svg" viewBox="0 0 64 64" id="repair">
  <path d="M18.943.888a1 1 0 0 0-.993-.013 14.542 14.542 0 0 0 .141 25.536v23.471a.912.912 0 0 0-.007.118v6.617A6.9 6.9 0 0 0 31.3 59.4a15.529 15.529 0 1 0 .6-22.962V26.411A14.542 14.542 0 0 0 32.04.875a1 1 0 0 0-1.485.875v11.263L25 16l-5.559-2.988V1.75a1 1 0 0 0-.498-.862Zm6.044 60.632a4.908 4.908 0 0 1-4.9-4.9v-6.5a.9.9 0 0 0 .004-.12V33.135H29.9v5.377a15.44 15.44 0 0 0-.144 19.17 4.912 4.912 0 0 1-4.769 3.838ZM29.9 31.135h-9.808V26.8H29.9Zm13.879 15.5a1 1 0 0 0 .734.325l4.421.013L39.553 58.6l.811-8.529a1 1 0 0 0-.995-1.1l-4.25.011 9.071-11.247-.673 8.141a1 1 0 0 0 .26.757Zm11.771 1.561a13.455 13.455 0 0 1-15.786 13.323L51.8 46.606a1 1 0 0 0-.776-1.628l-5.424-.017.79-9.558a13.542 13.542 0 0 1 9.158 12.791ZM42.02 34.665a13.5 13.5 0 0 1 1.951.157L32.242 49.36a1 1 0 0 0 .779 1.628l5.247-.014-.942 9.892a13.519 13.519 0 0 1 4.692-26.2Zm-17.5-16.648a1.007 1.007 0 0 0 .948 0l6.559-3.525a1 1 0 0 0 .527-.881V3.589a12.534 12.534 0 0 1-1.9 21.21H19.337a12.533 12.533 0 0 1-1.9-21.21v10.022a1 1 0 0 0 .526.881Z"></path>
  <circle cx="24.826" cy="55.238" r="1.845"></circle>
</svg>
