<svg xmlns="http://www.w3.org/2000/svg" enable-background="new 0 0 68 68" viewBox="0 0 68 68" id="safety-inspection">
  <path d="M17.93613 55.41041c-5.29999 6.51001-9.20996 10-11.63 10.40002-1.51996.21997-3.08997-.84003-4.07001-1.99005-.91998-1.07996-1.35999-2.27997-1.19995-3.27997.47998-2.90002 5.50995-7.63 10.40997-11.63.79999 1.31 1.77002 2.52997 2.89001 3.64001C15.43613 53.6504 16.64616 54.61042 17.93613 55.41041zM65.07615 7.69038L51.72617 2.37043c-.72003-.28003-1.52002-.28003-2.26001 0L36.11613 7.69038c-1.15997.48004-1.90997 1.59003-1.90997 2.84003.02002 4.28003 0 6.73999 0 8.40997 3.22998.93005 6.19 2.66003 8.64001 5.10004 5.27997 5.29999 7.00995 12.81 5.19 19.53998.69995.41998 1.41998.79004 2.14996 1.13 1.98735.8516 16.81-8.25625 16.81-24.98999v-9.19C66.99613 9.2804 66.24613 8.17042 65.07615 7.69038zM57.32615 16.03041c-3.17999 2.57001-5.96002 6.07001-8.75 11-.32001.58002-1.10999.69-1.58002.21997l-3.20001-3.19995c-.38995-.39001-.38995-1.02002 0-1.41003.40002-.39001 1.03003-.39001 1.42004 0l2.27997 2.27002c2.70001-4.57001 5.45001-7.91003 8.58002-10.44.41998-.34003 1.04999-.28003 1.40002.15002C57.82615 15.05042 57.75614 15.68043 57.32615 16.03041z"></path>
  <path d="M41.43613,25.4604c-7.13835-7.09478-18.61419-7.07582-25.69,0c-7.08002,7.08002-7.08002,18.60003,0,25.67999
			c7.08598,7.08598,18.57791,7.11209,25.69,0C48.36814,44.20853,48.67868,32.72071,41.43613,25.4604z M37.43613,47.1504
			c-4.89417,4.89417-12.81609,4.87392-17.69,0c-4.88-4.88-4.88-12.82001,0-17.69c4.84944-4.87001,12.78702-4.92378,17.69,0
			C42.29972,34.32398,42.33935,42.22638,37.43613,47.1504z"></path>
</svg>
